<?xml version="1.0" encoding="UTF-8" standalone="no"?>
<!DOCTYPE svg PUBLIC "-//W3C//DTD SVG 1.1//EN"
 "http://www.w3.org/Graphics/SVG/1.1/DTD/svg11.dtd">
<!-- Generated by graphviz version 12.2.1 (20241206.2353)
 -->
<!-- Title: WildcatV2_OwnershipPermissions Pages: 1 -->
<svg width="3918pt" height="1098pt"
 viewBox="0.00 0.00 3918.12 1098.12" xmlns="http://www.w3.org/2000/svg" xmlns:xlink="http://www.w3.org/1999/xlink">
<g id="graph0" class="graph" transform="scale(1 1) rotate(0) translate(4 1094.12)">
<title>WildcatV2_OwnershipPermissions</title>
<polygon fill="white" stroke="none" points="-4,4 -4,-1094.12 3914.12,-1094.12 3914.12,4 -4,4"/>
<g id="clust1" class="cluster">
<title>cluster_protocol</title>
<path fill="#e6e6fa" stroke="black" d="M2809,-679.5C2809,-679.5 3136,-679.5 3136,-679.5 3142,-679.5 3148,-685.5 3148,-691.5 3148,-691.5 3148,-1054.88 3148,-1054.88 3148,-1060.88 3142,-1066.88 3136,-1066.88 3136,-1066.88 2809,-1066.88 2809,-1066.88 2803,-1066.88 2797,-1060.88 2797,-1054.88 2797,-1054.88 2797,-691.5 2797,-691.5 2797,-685.5 2803,-679.5 2809,-679.5"/>
<text text-anchor="middle" x="2972.5" y="-1049.58" font-family="Times,serif" font-size="14.00">Protocol Level</text>
</g>
<g id="clust2" class="cluster">
<title>cluster_factory</title>
<path fill="#f0e6ff" stroke="black" d="M3168,-556.75C3168,-556.75 3504,-556.75 3504,-556.75 3510,-556.75 3516,-562.75 3516,-568.75 3516,-568.75 3516,-811.38 3516,-811.38 3516,-817.38 3510,-823.38 3504,-823.38 3504,-823.38 3168,-823.38 3168,-823.38 3162,-823.38 3156,-817.38 3156,-811.38 3156,-811.38 3156,-568.75 3156,-568.75 3156,-562.75 3162,-556.75 3168,-556.75"/>
<text text-anchor="middle" x="3336" y="-806.08" font-family="Times,serif" font-size="14.00">Factory Level</text>
</g>
<g id="clust3" class="cluster">
<title>cluster_market</title>
<path fill="#f5f0ff" stroke="black" d="M2892,-217.25C2892,-217.25 3366,-217.25 3366,-217.25 3372,-217.25 3378,-223.25 3378,-229.25 3378,-229.25 3378,-341.25 3378,-341.25 3378,-347.25 3372,-353.25 3366,-353.25 3366,-353.25 2892,-353.25 2892,-353.25 2886,-353.25 2880,-347.25 2880,-341.25 2880,-341.25 2880,-229.25 2880,-229.25 2880,-223.25 2886,-217.25 2892,-217.25"/>
<text text-anchor="middle" x="3129" y="-335.95" font-family="Times,serif" font-size="14.00">Market Level</text>
</g>
<g id="clust4" class="cluster">
<title>cluster_users</title>
<path fill="#f5f5f5" stroke="black" d="M2536,-27.75C2536,-27.75 2860,-27.75 2860,-27.75 2866,-27.75 2872,-33.75 2872,-39.75 2872,-39.75 2872,-511 2872,-511 2872,-517 2866,-523 2860,-523 2860,-523 2536,-523 2536,-523 2530,-523 2524,-517 2524,-511 2524,-511 2524,-39.75 2524,-39.75 2524,-33.75 2530,-27.75 2536,-27.75"/>
<text text-anchor="middle" x="2698" y="-505.7" font-family="Times,serif" font-size="14.00">User Level</text>
</g>
<g id="clust5" class="cluster">
<title>cluster_data</title>
<path fill="#f0f8ff" stroke="black" d="M2627,-934.12C2627,-934.12 2759,-934.12 2759,-934.12 2765,-934.12 2771,-940.12 2771,-946.12 2771,-946.12 2771,-1058.12 2771,-1058.12 2771,-1064.12 2765,-1070.12 2759,-1070.12 2759,-1070.12 2627,-1070.12 2627,-1070.12 2621,-1070.12 2615,-1064.12 2615,-1058.12 2615,-1058.12 2615,-946.12 2615,-946.12 2615,-940.12 2621,-934.12 2627,-934.12"/>
<text text-anchor="middle" x="2693" y="-1052.83" font-family="Times,serif" font-size="14.00">Data &amp; Lens Layer</text>
</g>
<g id="clust6" class="cluster">
<title>cluster_special</title>
<path fill="#fff0f0" stroke="black" d="M20,-8C20,-8 2504,-8 2504,-8 2510,-8 2516,-14 2516,-20 2516,-20 2516,-171.5 2516,-171.5 2516,-177.5 2510,-183.5 2504,-183.5 2504,-183.5 20,-183.5 20,-183.5 14,-183.5 8,-177.5 8,-171.5 8,-171.5 8,-20 8,-20 8,-14 14,-8 20,-8"/>
<text text-anchor="middle" x="1262" y="-166.2" font-family="Times,serif" font-size="14.00">Special Permissions &amp; Emergency Powers</text>
</g>
<!-- ProtocolOwner -->
<g id="node1" class="node">
<title>ProtocolOwner</title>
<path fill="#4b0082" stroke="black" d="M3129.87,-984.64C3129.87,-984.64 3104.54,-1002.87 3104.54,-1002.87 3099.67,-1006.37 3088.81,-1009.88 3082.81,-1009.88 3082.81,-1009.88 3017.19,-1009.88 3017.19,-1009.88 3011.19,-1009.88 3000.33,-1006.37 2995.46,-1002.87 2995.46,-1002.87 2970.13,-984.64 2970.13,-984.64 2965.26,-981.13 2965.26,-974.12 2970.13,-970.61 2970.13,-970.61 2995.46,-952.38 2995.46,-952.38 3000.33,-948.88 3011.19,-945.37 3017.19,-945.37 3017.19,-945.37 3082.81,-945.37 3082.81,-945.37 3088.81,-945.37 3099.67,-948.88 3104.54,-952.38 3104.54,-952.38 3129.87,-970.61 3129.87,-970.61 3134.74,-974.12 3134.74,-981.13 3129.87,-984.64"/>
<text text-anchor="middle" x="3050" y="-980.08" font-family="Arial" font-size="14.00" fill="white">Protocol Owner</text>
<text text-anchor="middle" x="3050" y="-964.33" font-family="Arial" font-size="14.00" fill="white">(Multisig)</text>
</g>
<!-- WildcatArchController -->
<g id="node2" class="node">
<title>WildcatArchController</title>
<path fill="#4b0082" stroke="black" d="M2940.62,-774.25C2940.62,-774.25 2817.38,-774.25 2817.38,-774.25 2811.38,-774.25 2805.38,-768.25 2805.38,-762.25 2805.38,-762.25 2805.38,-699.5 2805.38,-699.5 2805.38,-693.5 2811.38,-687.5 2817.38,-687.5 2817.38,-687.5 2940.62,-687.5 2940.62,-687.5 2946.62,-687.5 2952.62,-693.5 2952.62,-699.5 2952.62,-699.5 2952.62,-762.25 2952.62,-762.25 2952.62,-768.25 2946.62,-774.25 2940.62,-774.25"/>
<text text-anchor="middle" x="2879" y="-756.95" font-family="Arial" font-size="14.00" fill="white">WildcatArchController</text>
<text text-anchor="middle" x="2879" y="-741.2" font-family="Arial" font-size="14.00" fill="white">&#45; Master Registry</text>
<text text-anchor="middle" x="2879" y="-725.45" font-family="Arial" font-size="14.00" fill="white">&#45; Borrower Gate</text>
<text text-anchor="middle" x="2879" y="-709.7" font-family="Arial" font-size="14.00" fill="white">&#45; Asset Blacklist</text>
<text text-anchor="middle" x="2879" y="-693.95" font-family="Arial" font-size="14.00" fill="white">&#45; Fee Configuration</text>
</g>
<!-- ProtocolOwner&#45;&gt;WildcatArchController -->
<g id="edge1" class="edge">
<title>ProtocolOwner&#45;&gt;WildcatArchController</title>
<path fill="none" stroke="#4b0082" stroke-width="2" d="M3027.99,-945.13C2999.44,-904.25 2949.23,-832.39 2915.06,-783.49"/>
<polygon fill="#4b0082" stroke="#4b0082" stroke-width="2" points="2919,-783.01 2910.4,-776.82 2913.26,-787.02 2919,-783.01"/>
<text text-anchor="middle" x="2975.12" y="-833.83" font-family="Arial" font-size="14.00">owns</text>
</g>
<!-- WildcatSanctionsSentinel -->
<g id="node3" class="node">
<title>WildcatSanctionsSentinel</title>
<path fill="#4b0082" stroke="black" d="M3127.5,-758.5C3127.5,-758.5 2982.5,-758.5 2982.5,-758.5 2976.5,-758.5 2970.5,-752.5 2970.5,-746.5 2970.5,-746.5 2970.5,-715.25 2970.5,-715.25 2970.5,-709.25 2976.5,-703.25 2982.5,-703.25 2982.5,-703.25 3127.5,-703.25 3127.5,-703.25 3133.5,-703.25 3139.5,-709.25 3139.5,-715.25 3139.5,-715.25 3139.5,-746.5 3139.5,-746.5 3139.5,-752.5 3133.5,-758.5 3127.5,-758.5"/>
<text text-anchor="middle" x="3055" y="-741.2" font-family="Arial" font-size="14.00" fill="white">WildcatSanctionsSentinel</text>
<text text-anchor="middle" x="3055" y="-725.45" font-family="Arial" font-size="14.00" fill="white">&#45; Sanctions Monitoring</text>
<text text-anchor="middle" x="3055" y="-709.7" font-family="Arial" font-size="14.00" fill="white">&#45; Escrow Creation</text>
</g>
<!-- ProtocolOwner&#45;&gt;WildcatSanctionsSentinel -->
<g id="edge2" class="edge">
<title>ProtocolOwner&#45;&gt;WildcatSanctionsSentinel</title>
<path fill="none" stroke="#4b0082" stroke-width="2" d="M3050.64,-945.13C3051.56,-900.38 3053.23,-818.48 3054.22,-770.24"/>
<polygon fill="#4b0082" stroke="#4b0082" stroke-width="2" points="3057.68,-771.84 3054.39,-761.77 3050.69,-771.7 3057.68,-771.84"/>
<text text-anchor="middle" x="3068.7" y="-833.83" font-family="Arial" font-size="14.00">owns</text>
</g>
<!-- HooksTemplates -->
<g id="node5" class="node">
<title>HooksTemplates</title>
<path fill="#6a0dad" stroke="black" d="M3496,-766.38C3496,-766.38 3354,-766.38 3354,-766.38 3348,-766.38 3342,-760.38 3342,-754.38 3342,-754.38 3342,-707.38 3342,-707.38 3342,-701.38 3348,-695.38 3354,-695.38 3354,-695.38 3496,-695.38 3496,-695.38 3502,-695.38 3508,-701.38 3508,-707.38 3508,-707.38 3508,-754.38 3508,-754.38 3508,-760.38 3502,-766.38 3496,-766.38"/>
<text text-anchor="middle" x="3425" y="-749.08" font-family="Arial" font-size="14.00" fill="white">Hooks Templates</text>
<text text-anchor="middle" x="3425" y="-733.33" font-family="Arial" font-size="14.00" fill="white">&#45; AccessControlHooks</text>
<text text-anchor="middle" x="3425" y="-717.58" font-family="Arial" font-size="14.00" fill="white">&#45; MarketConstraintHooks</text>
<text text-anchor="middle" x="3425" y="-701.83" font-family="Arial" font-size="14.00" fill="white">&#45; FixedTermLoanHooks</text>
</g>
<!-- ProtocolOwner&#45;&gt;HooksTemplates -->
<g id="edge7" class="edge">
<title>ProtocolOwner&#45;&gt;HooksTemplates</title>
<path fill="none" stroke="#ff0000" stroke-dasharray="5,2" d="M3068.9,-945.03C3086.27,-919.01 3114.51,-883.53 3149,-865.12 3201.24,-837.25 3224.13,-863.6 3281,-847.12 3305.4,-840.06 3312.11,-837.84 3333,-823.38 3352.9,-809.6 3372.29,-791.28 3388.11,-774.64"/>
<polygon fill="#ff0000" stroke="#ff0000" points="3390.28,-777.45 3394.54,-767.75 3385.16,-772.67 3390.28,-777.45"/>
<text text-anchor="middle" x="3379.22" y="-833.83" font-family="Arial" font-size="14.00">approves templates</text>
</g>
<!-- SphereXEngine -->
<g id="node6" class="node">
<title>SphereXEngine</title>
<path fill="#6a0dad" stroke="black" d="M3311.62,-758.5C3311.62,-758.5 3176.38,-758.5 3176.38,-758.5 3170.38,-758.5 3164.38,-752.5 3164.38,-746.5 3164.38,-746.5 3164.38,-715.25 3164.38,-715.25 3164.38,-709.25 3170.38,-703.25 3176.38,-703.25 3176.38,-703.25 3311.62,-703.25 3311.62,-703.25 3317.62,-703.25 3323.62,-709.25 3323.62,-715.25 3323.62,-715.25 3323.62,-746.5 3323.62,-746.5 3323.62,-752.5 3317.62,-758.5 3311.62,-758.5"/>
<text text-anchor="middle" x="3244" y="-741.2" font-family="Arial" font-size="14.00" fill="white">SphereX Engine</text>
<text text-anchor="middle" x="3244" y="-725.45" font-family="Arial" font-size="14.00" fill="white">&#45; Security Monitoring</text>
<text text-anchor="middle" x="3244" y="-709.7" font-family="Arial" font-size="14.00" fill="white">&#45; Transaction Protection</text>
</g>
<!-- ProtocolOwner&#45;&gt;SphereXEngine -->
<g id="edge8" class="edge">
<title>ProtocolOwner&#45;&gt;SphereXEngine</title>
<path fill="none" stroke="#ff0000" stroke-dasharray="5,2" d="M3074.96,-945.13C3111.11,-899.52 3177.84,-815.34 3215.75,-767.52"/>
<polygon fill="#ff0000" stroke="#ff0000" points="3218.29,-769.94 3221.76,-759.93 3212.81,-765.59 3218.29,-769.94"/>
<text text-anchor="middle" x="3220.63" y="-833.83" font-family="Arial" font-size="14.00">configures security</text>
</g>
<!-- RegisteredBorrower -->
<g id="node10" class="node">
<title>RegisteredBorrower</title>
<path fill="#808080" stroke="black" d="M2667.62,-466C2667.62,-466 2544.38,-466 2544.38,-466 2538.38,-466 2532.38,-460 2532.38,-454 2532.38,-454 2532.38,-407 2532.38,-407 2532.38,-401 2538.38,-395 2544.38,-395 2544.38,-395 2667.62,-395 2667.62,-395 2673.62,-395 2679.62,-401 2679.62,-407 2679.62,-407 2679.62,-454 2679.62,-454 2679.62,-460 2673.62,-466 2667.62,-466"/>
<text text-anchor="middle" x="2606" y="-448.7" font-family="Arial" font-size="14.00" fill="white">Registered Borrower</text>
<text text-anchor="middle" x="2606" y="-432.95" font-family="Arial" font-size="14.00" fill="white">&#45; Can Deploy Markets</text>
<text text-anchor="middle" x="2606" y="-417.2" font-family="Arial" font-size="14.00" fill="white">&#45; Configure Hooks</text>
<text text-anchor="middle" x="2606" y="-401.45" font-family="Arial" font-size="14.00" fill="white">&#45; Manage Terms</text>
</g>
<!-- ProtocolOwner&#45;&gt;RegisteredBorrower -->
<g id="edge6" class="edge">
<title>ProtocolOwner&#45;&gt;RegisteredBorrower</title>
<path fill="none" stroke="#ff0000" stroke-dasharray="5,2" d="M3006.87,-944.91C2961.97,-912.99 2888.71,-863.93 2820,-831.38 2809.84,-826.56 2803.37,-831.86 2796,-823.38 2776.24,-800.64 2764.32,-581.39 2747,-556.75 2729.85,-532.35 2712.18,-541.77 2689,-523 2671.7,-508.99 2654.79,-491.31 2640.79,-475.22"/>
<polygon fill="#ff0000" stroke="#ff0000" points="2643.47,-472.97 2634.31,-467.64 2638.14,-477.52 2643.47,-472.97"/>
<text text-anchor="middle" x="2828.16" y="-656.2" font-family="Arial" font-size="14.00">grants borrower role</text>
</g>
<!-- HooksFactory -->
<g id="node4" class="node">
<title>HooksFactory</title>
<path fill="#6a0dad" stroke="black" d="M3276,-635.75C3276,-635.75 3176,-635.75 3176,-635.75 3170,-635.75 3164,-629.75 3164,-623.75 3164,-623.75 3164,-576.75 3164,-576.75 3164,-570.75 3170,-564.75 3176,-564.75 3176,-564.75 3276,-564.75 3276,-564.75 3282,-564.75 3288,-570.75 3288,-576.75 3288,-576.75 3288,-623.75 3288,-623.75 3288,-629.75 3282,-635.75 3276,-635.75"/>
<text text-anchor="middle" x="3226" y="-618.45" font-family="Arial" font-size="14.00" fill="white">HooksFactory</text>
<text text-anchor="middle" x="3226" y="-602.7" font-family="Arial" font-size="14.00" fill="white">&#45; Market Deployer</text>
<text text-anchor="middle" x="3226" y="-586.95" font-family="Arial" font-size="14.00" fill="white">&#45; Hooks Deployer</text>
<text text-anchor="middle" x="3226" y="-571.2" font-family="Arial" font-size="14.00" fill="white">&#45; Fee Collection</text>
</g>
<!-- WildcatArchController&#45;&gt;HooksFactory -->
<g id="edge3" class="edge">
<title>WildcatArchController&#45;&gt;HooksFactory</title>
<path fill="none" stroke="#4b0082" stroke-width="2" d="M2946.17,-687.16C2951.45,-684.41 2956.76,-681.82 2962,-679.5 3024.16,-651.98 3098.72,-630.89 3152.73,-617.57"/>
<polygon fill="#4b0082" stroke="#4b0082" stroke-width="2" points="3151.75,-621.41 3160.64,-615.65 3150.1,-614.61 3151.75,-621.41"/>
<text text-anchor="middle" x="3056.34" y="-656.2" font-family="Arial" font-size="14.00">authorizes</text>
</g>
<!-- WildcatArchController&#45;&gt;RegisteredBorrower -->
<g id="edge20" class="edge">
<title>WildcatArchController&#45;&gt;RegisteredBorrower</title>
<path fill="none" stroke="#8b0000" stroke-width="2" d="M2898.27,-687.16C2900.68,-675.43 2900.18,-663.31 2893,-653.75 2875.77,-630.81 2852.58,-654.67 2831,-635.75 2792.77,-602.23 2826.38,-560.55 2785,-531 2767.58,-518.56 2708.2,-532.48 2689,-523 2667.18,-512.23 2648.41,-493.04 2634.26,-475"/>
<polygon fill="#8b0000" stroke="#8b0000" stroke-width="2" points="2638.32,-474.58 2629.51,-468.7 2632.73,-478.8 2638.32,-474.58"/>
<text text-anchor="middle" x="2864" y="-594.83" font-family="Arial" font-size="14.00">can revoke</text>
</g>
<!-- SanctionsEscrow -->
<g id="node9" class="node">
<title>SanctionsEscrow</title>
<path fill="#9370db" stroke="black" d="M3024,-288.38C3024,-288.38 2900,-288.38 2900,-288.38 2894,-288.38 2888,-282.38 2888,-276.38 2888,-276.38 2888,-245.12 2888,-245.12 2888,-239.12 2894,-233.12 2900,-233.12 2900,-233.12 3024,-233.12 3024,-233.12 3030,-233.12 3036,-239.12 3036,-245.12 3036,-245.12 3036,-276.38 3036,-276.38 3036,-282.38 3030,-288.38 3024,-288.38"/>
<text text-anchor="middle" x="2962" y="-271.07" font-family="Arial" font-size="14.00" fill="white">Sanctions Escrow</text>
<text text-anchor="middle" x="2962" y="-255.32" font-family="Arial" font-size="14.00" fill="white">&#45; Asset Custody</text>
<text text-anchor="middle" x="2962" y="-239.57" font-family="Arial" font-size="14.00" fill="white">&#45; Release Mechanism</text>
</g>
<!-- WildcatSanctionsSentinel&#45;&gt;SanctionsEscrow -->
<g id="edge14" class="edge">
<title>WildcatSanctionsSentinel&#45;&gt;SanctionsEscrow</title>
<path fill="none" stroke="#dc143c" stroke-dasharray="5,2" d="M3053.41,-702.85C3048.42,-617.97 3033.36,-362.26 3033,-361.25 3024.68,-337.69 3008.99,-314.76 2994.48,-296.86"/>
<polygon fill="#dc143c" stroke="#dc143c" points="2997.55,-295.08 2988.45,-289.65 2992.18,-299.57 2997.55,-295.08"/>
<text text-anchor="middle" x="3106.04" y="-533.45" font-family="Arial" font-size="14.00">creates on sanctions</text>
</g>
<!-- MarketInstance -->
<g id="node7" class="node">
<title>MarketInstance</title>
<path fill="#9370db" stroke="black" d="M3358.12,-296.25C3358.12,-296.25 3243.88,-296.25 3243.88,-296.25 3237.88,-296.25 3231.88,-290.25 3231.88,-284.25 3231.88,-284.25 3231.88,-237.25 3231.88,-237.25 3231.88,-231.25 3237.88,-225.25 3243.88,-225.25 3243.88,-225.25 3358.12,-225.25 3358.12,-225.25 3364.12,-225.25 3370.12,-231.25 3370.12,-237.25 3370.12,-237.25 3370.12,-284.25 3370.12,-284.25 3370.12,-290.25 3364.12,-296.25 3358.12,-296.25"/>
<text text-anchor="middle" x="3301" y="-278.95" font-family="Arial" font-size="14.00" fill="white">Market Instance</text>
<text text-anchor="middle" x="3301" y="-263.2" font-family="Arial" font-size="14.00" fill="white">&#45; Borrower Owned</text>
<text text-anchor="middle" x="3301" y="-247.45" font-family="Arial" font-size="14.00" fill="white">&#45; Hooks Controlled</text>
<text text-anchor="middle" x="3301" y="-231.7" font-family="Arial" font-size="14.00" fill="white">&#45; SphereX Protected</text>
</g>
<!-- HooksFactory&#45;&gt;MarketInstance -->
<g id="edge9" class="edge">
<title>HooksFactory&#45;&gt;MarketInstance</title>
<path fill="none" stroke="#ff0000" stroke-dasharray="5,2" d="M3249.38,-564.52C3256.8,-551.93 3264.3,-537.29 3269,-523 3292.89,-450.36 3299.22,-361.05 3300.74,-307.91"/>
<polygon fill="#ff0000" stroke="#ff0000" points="3304.24,-308.09 3300.97,-298.01 3297.24,-307.92 3304.24,-308.09"/>
<text text-anchor="middle" x="3369.82" y="-425.07" font-family="Arial" font-size="14.00">deploys with permissions</text>
</g>
<!-- HooksInstance -->
<g id="node8" class="node">
<title>HooksInstance</title>
<path fill="#9370db" stroke="black" d="M3202,-296.25C3202,-296.25 3066,-296.25 3066,-296.25 3060,-296.25 3054,-290.25 3054,-284.25 3054,-284.25 3054,-237.25 3054,-237.25 3054,-231.25 3060,-225.25 3066,-225.25 3066,-225.25 3202,-225.25 3202,-225.25 3208,-225.25 3214,-231.25 3214,-237.25 3214,-237.25 3214,-284.25 3214,-284.25 3214,-290.25 3208,-296.25 3202,-296.25"/>
<text text-anchor="middle" x="3134" y="-278.95" font-family="Arial" font-size="14.00" fill="white">Hooks Instance</text>
<text text-anchor="middle" x="3134" y="-263.2" font-family="Arial" font-size="14.00" fill="white">&#45; Access Rules</text>
<text text-anchor="middle" x="3134" y="-247.45" font-family="Arial" font-size="14.00" fill="white">&#45; Parameter Constraints</text>
<text text-anchor="middle" x="3134" y="-231.7" font-family="Arial" font-size="14.00" fill="white">&#45; Term Management</text>
</g>
<!-- HooksFactory&#45;&gt;HooksInstance -->
<g id="edge10" class="edge">
<title>HooksFactory&#45;&gt;HooksInstance</title>
<path fill="none" stroke="#ff0000" stroke-dasharray="5,2" d="M3205.69,-564.28C3196.85,-551.96 3185.42,-539.17 3172,-531 3156.05,-521.29 3143.75,-536.4 3130.75,-523 3075.71,-466.26 3097.11,-365.71 3116.39,-307.28"/>
<polygon fill="#ff0000" stroke="#ff0000" points="3119.65,-308.56 3119.58,-297.97 3113.03,-306.3 3119.65,-308.56"/>
<text text-anchor="middle" x="3197.88" y="-425.07" font-family="Arial" font-size="14.00">deploys from template</text>
</g>
<!-- FeeRecipient -->
<g id="node13" class="node">
<title>FeeRecipient</title>
<path fill="#808080" stroke="black" d="M2852.38,-458.12C2852.38,-458.12 2709.62,-458.12 2709.62,-458.12 2703.62,-458.12 2697.62,-452.12 2697.62,-446.12 2697.62,-446.12 2697.62,-414.88 2697.62,-414.88 2697.62,-408.88 2703.62,-402.88 2709.62,-402.88 2709.62,-402.88 2852.38,-402.88 2852.38,-402.88 2858.38,-402.88 2864.38,-408.88 2864.38,-414.88 2864.38,-414.88 2864.38,-446.12 2864.38,-446.12 2864.38,-452.12 2858.38,-458.12 2852.38,-458.12"/>
<text text-anchor="middle" x="2781" y="-440.82" font-family="Arial" font-size="14.00" fill="white">Fee Recipient</text>
<text text-anchor="middle" x="2781" y="-425.07" font-family="Arial" font-size="14.00" fill="white">&#45; Receives Protocol Fees</text>
<text text-anchor="middle" x="2781" y="-409.32" font-family="Arial" font-size="14.00" fill="white">&#45; Collects Origination</text>
</g>
<!-- HooksFactory&#45;&gt;FeeRecipient -->
<g id="edge24" class="edge">
<title>HooksFactory&#45;&gt;FeeRecipient</title>
<path fill="none" stroke="#daa520" stroke-width="2" d="M3163.83,-583.22C3126.21,-574.11 3077.13,-563.25 3033,-556.75 3003.95,-552.47 2928.06,-558.72 2901.25,-546.75 2862.58,-529.48 2828.8,-494.26 2806.97,-467.27"/>
<polygon fill="#daa520" stroke="#daa520" stroke-width="2" points="2810.85,-466.53 2801.91,-460.85 2805.35,-470.87 2810.85,-466.53"/>
<text text-anchor="middle" x="2963.12" y="-533.45" font-family="Arial" font-size="14.00">pays origination fees</text>
</g>
<!-- SphereXEngine&#45;&gt;HooksFactory -->
<g id="edge16" class="edge">
<title>SphereXEngine&#45;&gt;HooksFactory</title>
<path fill="none" stroke="#9370db" stroke-dasharray="5,2" d="M3240.23,-702.91C3237.97,-686.81 3235.05,-665.92 3232.44,-647.27"/>
<polygon fill="#9370db" stroke="#9370db" points="3235.93,-646.93 3231.07,-637.51 3228.99,-647.9 3235.93,-646.93"/>
<text text-anchor="middle" x="3300.04" y="-656.2" font-family="Arial" font-size="14.00">protects deployments</text>
</g>
<!-- SphereXEngine&#45;&gt;MarketInstance -->
<g id="edge15" class="edge">
<title>SphereXEngine&#45;&gt;MarketInstance</title>
<path fill="none" stroke="#9370db" stroke-dasharray="5,2" d="M3286.84,-702.83C3301.15,-694.56 3317.42,-685.96 3333,-679.5 3348.34,-673.14 3355.99,-679.82 3369,-669.5 3427.1,-623.38 3430.65,-594.88 3449,-523 3463.07,-467.88 3472.14,-446.97 3449,-395 3432.3,-357.49 3399.23,-326.1 3368.59,-303.23"/>
<polygon fill="#9370db" stroke="#9370db" points="3370.97,-300.64 3360.83,-297.59 3366.86,-306.3 3370.97,-300.64"/>
<text text-anchor="middle" x="3509.19" y="-533.45" font-family="Arial" font-size="14.00">protects transactions</text>
</g>
<!-- MarketInstance&#45;&gt;FeeRecipient -->
<g id="edge23" class="edge">
<title>MarketInstance&#45;&gt;FeeRecipient</title>
<path fill="none" stroke="#daa520" stroke-width="2" d="M3281.07,-296.47C3267.46,-316.69 3247.49,-340.62 3223,-353.25 3204.86,-362.6 3151.71,-358.41 3131.5,-361.25 3044.38,-373.51 2946.15,-393.15 2875.89,-408.22"/>
<polygon fill="#daa520" stroke="#daa520" stroke-width="2" points="2876.86,-404.43 2867.82,-409.96 2878.33,-411.27 2876.86,-404.43"/>
<text text-anchor="middle" x="3186.25" y="-363.7" font-family="Arial" font-size="14.00">pays protocol fees</text>
</g>
<!-- AuthorizedLender -->
<g id="node11" class="node">
<title>AuthorizedLender</title>
<path fill="#808080" stroke="black" d="M2838.62,-106.75C2838.62,-106.75 2703.38,-106.75 2703.38,-106.75 2697.38,-106.75 2691.38,-100.75 2691.38,-94.75 2691.38,-94.75 2691.38,-47.75 2691.38,-47.75 2691.38,-41.75 2697.38,-35.75 2703.38,-35.75 2703.38,-35.75 2838.62,-35.75 2838.62,-35.75 2844.62,-35.75 2850.62,-41.75 2850.62,-47.75 2850.62,-47.75 2850.62,-94.75 2850.62,-94.75 2850.62,-100.75 2844.62,-106.75 2838.62,-106.75"/>
<text text-anchor="middle" x="2771" y="-89.45" font-family="Arial" font-size="14.00" fill="white">Authorized Lender</text>
<text text-anchor="middle" x="2771" y="-73.7" font-family="Arial" font-size="14.00" fill="white">&#45; Has Credential</text>
<text text-anchor="middle" x="2771" y="-57.95" font-family="Arial" font-size="14.00" fill="white">&#45; Can Deposit/Withdraw</text>
<text text-anchor="middle" x="2771" y="-42.2" font-family="Arial" font-size="14.00" fill="white">&#45; Time&#45;Limited Access</text>
</g>
<!-- HooksInstance&#45;&gt;AuthorizedLender -->
<g id="edge11" class="edge">
<title>HooksInstance&#45;&gt;AuthorizedLender</title>
<path fill="none" stroke="#0000ff" stroke-dasharray="1,5" d="M3066.57,-224.92C3004.88,-193.05 2913.61,-145.91 2848.84,-112.46"/>
<polygon fill="#0000ff" stroke="#0000ff" points="2850.52,-109.38 2840.03,-107.9 2847.3,-115.6 2850.52,-109.38"/>
<text text-anchor="middle" x="3076.24" y="-193.95" font-family="Arial" font-size="14.00">validates access</text>
</g>
<!-- RoleProvider -->
<g id="node12" class="node">
<title>RoleProvider</title>
<path fill="#808080" stroke="black" d="M2787.62,-296.25C2787.62,-296.25 2676.38,-296.25 2676.38,-296.25 2670.38,-296.25 2664.38,-290.25 2664.38,-284.25 2664.38,-284.25 2664.38,-237.25 2664.38,-237.25 2664.38,-231.25 2670.38,-225.25 2676.38,-225.25 2676.38,-225.25 2787.62,-225.25 2787.62,-225.25 2793.62,-225.25 2799.62,-231.25 2799.62,-237.25 2799.62,-237.25 2799.62,-284.25 2799.62,-284.25 2799.62,-290.25 2793.62,-296.25 2787.62,-296.25"/>
<text text-anchor="middle" x="2732" y="-278.95" font-family="Arial" font-size="14.00" fill="white">Role Provider</text>
<text text-anchor="middle" x="2732" y="-263.2" font-family="Arial" font-size="14.00" fill="white">&#45; Issues Credentials</text>
<text text-anchor="middle" x="2732" y="-247.45" font-family="Arial" font-size="14.00" fill="white">&#45; Validates Access</text>
<text text-anchor="middle" x="2732" y="-231.7" font-family="Arial" font-size="14.00" fill="white">&#45; Pull/Push Models</text>
</g>
<!-- HooksInstance&#45;&gt;RoleProvider -->
<g id="edge13" class="edge">
<title>HooksInstance&#45;&gt;RoleProvider</title>
<path fill="none" stroke="#0000ff" stroke-dasharray="1,5" d="M3109.7,-296.71C3093.9,-316.72 3071.36,-339.76 3045,-350.77 2975.69,-379.71 2948.2,-371.48 2876,-350.77 2842.93,-341.29 2810.1,-321.75 2784.15,-303.29"/>
<polygon fill="#0000ff" stroke="#0000ff" points="2786.28,-300.51 2776.14,-297.45 2782.16,-306.17 2786.28,-300.51"/>
<text text-anchor="middle" x="2834" y="-363.7" font-family="Arial" font-size="14.00">trusts</text>
</g>
<!-- RegisteredBorrower&#45;&gt;MarketInstance -->
<g id="edge4" class="edge">
<title>RegisteredBorrower&#45;&gt;MarketInstance</title>
<path fill="none" stroke="#006400" stroke-width="2" d="M2679.82,-397.43C2682.89,-396.54 2685.96,-395.72 2689,-395 2798.26,-369.11 2830.28,-395.68 2941,-377 2967.55,-372.52 2972.87,-365.26 2999.5,-361.25 3024.07,-357.55 3200.63,-364.07 3223,-353.25 3244.28,-342.96 3262,-323.87 3275.14,-305.77"/>
<polygon fill="#006400" stroke="#006400" stroke-width="2" points="3277.06,-309.16 3279.87,-298.94 3271.3,-305.17 3277.06,-309.16"/>
<text text-anchor="middle" x="3015.25" y="-363.7" font-family="Arial" font-size="14.00">owns</text>
</g>
<!-- RegisteredBorrower&#45;&gt;HooksInstance -->
<g id="edge5" class="edge">
<title>RegisteredBorrower&#45;&gt;HooksInstance</title>
<path fill="none" stroke="#006400" stroke-width="2" d="M2679.85,-397.58C2682.92,-396.65 2685.98,-395.78 2689,-395 2759.58,-376.83 2783.73,-402.52 2852,-377 2863.52,-372.69 2863.1,-365.19 2874.75,-361.25 2910.63,-349.11 3010.46,-368.8 3045,-353.25 3068.1,-342.85 3088.31,-323.5 3103.61,-305.26"/>
<polygon fill="#006400" stroke="#006400" stroke-width="2" points="3105.27,-308.78 3108.82,-298.8 3099.82,-304.39 3105.27,-308.78"/>
<text text-anchor="middle" x="2905.88" y="-363.7" font-family="Arial" font-size="14.00">configures</text>
</g>
<!-- RegisteredBorrower&#45;&gt;SanctionsEscrow -->
<g id="edge22" class="edge">
<title>RegisteredBorrower&#45;&gt;SanctionsEscrow</title>
<path fill="none" stroke="#8b0000" stroke-width="2" d="M2638.54,-394.83C2653.31,-380.01 2669.56,-365.2 2679,-361.25 2719.42,-344.34 2836.15,-371.45 2876,-353.25 2901.68,-341.52 2923.38,-318.25 2938.56,-298.11"/>
<polygon fill="#8b0000" stroke="#8b0000" stroke-width="2" points="2940.47,-301.44 2943.5,-291.29 2934.8,-297.33 2940.47,-301.44"/>
<text text-anchor="middle" x="2746.5" y="-363.7" font-family="Arial" font-size="14.00">can override sanctions</text>
</g>
<!-- RegisteredBorrower&#45;&gt;RoleProvider -->
<g id="edge21" class="edge">
<title>RegisteredBorrower&#45;&gt;RoleProvider</title>
<path fill="none" stroke="#8b0000" stroke-width="2" d="M2561.91,-394.67C2553.28,-383.81 2549.16,-371.89 2557.5,-361.25 2566.68,-349.54 2576.34,-359.14 2590,-353.25 2620.58,-340.07 2651.97,-320.58 2677.44,-302.97"/>
<polygon fill="#8b0000" stroke="#8b0000" stroke-width="2" points="2677.89,-306.93 2684.06,-298.32 2673.87,-301.2 2677.89,-306.93"/>
<text text-anchor="middle" x="2606.25" y="-363.7" font-family="Arial" font-size="14.00">can add/remove</text>
</g>
<!-- ParameterUpdates -->
<g id="node16" class="node">
<title>ParameterUpdates</title>
<path fill="#ff6347" stroke="black" d="M1699.49,-107.35C1699.49,-107.35 1588.76,-74.65 1588.76,-74.65 1583,-72.95 1583,-69.55 1588.76,-67.85 1588.76,-67.85 1699.49,-35.15 1699.49,-35.15 1705.25,-33.45 1716.75,-33.45 1722.51,-35.15 1722.51,-35.15 1833.24,-67.85 1833.24,-67.85 1839,-69.55 1839,-72.95 1833.24,-74.65 1833.24,-74.65 1722.51,-107.35 1722.51,-107.35 1716.75,-109.05 1705.25,-109.05 1699.49,-107.35"/>
<text text-anchor="middle" x="1711" y="-73.7" font-family="Arial" font-size="14.00" fill="white">Parameter Updates</text>
<text text-anchor="middle" x="1711" y="-57.95" font-family="Arial" font-size="14.00" fill="white">(Borrower + Hooks)</text>
</g>
<!-- RegisteredBorrower&#45;&gt;ParameterUpdates -->
<g id="edge25" class="edge">
<title>RegisteredBorrower&#45;&gt;ParameterUpdates</title>
<path fill="none" stroke="#ff0000" stroke-width="2" d="M2531.98,-421.55C2477.27,-412.53 2403.39,-393.44 2350.5,-353.25 2293.65,-310.05 2321.83,-260.47 2265,-217.25 2233.24,-193.1 2218.4,-197.77 2179,-191.5 2143.33,-185.82 1888.02,-195.64 1854,-183.5 1812.39,-168.65 1773.39,-136.6 1746.66,-110.7"/>
<polygon fill="#ff0000" stroke="#ff0000" stroke-width="2" points="1750.49,-109.56 1740.92,-105.01 1745.56,-114.54 1750.49,-109.56"/>
<text text-anchor="middle" x="2399.25" y="-255.32" font-family="Arial" font-size="14.00">subject to hooks</text>
</g>
<!-- SanctionsOverride -->
<g id="node17" class="node">
<title>SanctionsOverride</title>
<path fill="#ff6347" stroke="black" d="M367.51,-107.3C367.51,-107.3 258.99,-74.7 258.99,-74.7 253.25,-72.98 253.25,-69.52 258.99,-67.8 258.99,-67.8 367.51,-35.2 367.51,-35.2 373.25,-33.48 384.75,-33.48 390.49,-35.2 390.49,-35.2 499.01,-67.8 499.01,-67.8 504.75,-69.52 504.75,-72.98 499.01,-74.7 499.01,-74.7 390.49,-107.3 390.49,-107.3 384.75,-109.02 373.25,-109.02 367.51,-107.3"/>
<text text-anchor="middle" x="379" y="-73.7" font-family="Arial" font-size="14.00" fill="white">Sanctions Override</text>
<text text-anchor="middle" x="379" y="-57.95" font-family="Arial" font-size="14.00" fill="white">(Borrower Only)</text>
</g>
<!-- RegisteredBorrower&#45;&gt;SanctionsOverride -->
<g id="edge26" class="edge">
<title>RegisteredBorrower&#45;&gt;SanctionsOverride</title>
<path fill="none" stroke="#ff0000" stroke-width="2" d="M2532.01,-428.36C2264.37,-423.84 1347.18,-404.85 1059,-353.25 811.78,-308.98 742.01,-300.94 520,-183.5 482.44,-163.63 444.92,-133.4 418.04,-109.46"/>
<polygon fill="#ff0000" stroke="#ff0000" stroke-width="2" points="421.71,-108.06 411.94,-103.96 417.02,-113.26 421.71,-108.06"/>
<text text-anchor="middle" x="1107" y="-255.32" font-family="Arial" font-size="14.00">exclusive power</text>
</g>
<!-- EmergencyOperations -->
<g id="node21" class="node">
<title>EmergencyOperations</title>
<path fill="#ff6347" stroke="black" d="M715.44,-123.28C715.44,-123.28 540.31,-74.47 540.31,-74.47 534.53,-72.86 534.53,-69.64 540.31,-68.03 540.31,-68.03 715.44,-19.22 715.44,-19.22 721.22,-17.61 732.78,-17.61 738.56,-19.22 738.56,-19.22 913.69,-68.03 913.69,-68.03 919.47,-69.64 919.47,-72.86 913.69,-74.47 913.69,-74.47 738.56,-123.28 738.56,-123.28 732.78,-124.89 721.22,-124.89 715.44,-123.28"/>
<text text-anchor="middle" x="727" y="-81.58" font-family="Arial" font-size="14.00" fill="white">Emergency Operations</text>
<text text-anchor="middle" x="727" y="-65.83" font-family="Arial" font-size="14.00" fill="white">(rescueTokens, forceBuyBack,</text>
<text text-anchor="middle" x="727" y="-50.08" font-family="Arial" font-size="14.00" fill="white">nukeFromOrbit)</text>
</g>
<!-- RegisteredBorrower&#45;&gt;EmergencyOperations -->
<g id="edge27" class="edge">
<title>RegisteredBorrower&#45;&gt;EmergencyOperations</title>
<path fill="none" stroke="#ff0000" stroke-width="2" d="M2532,-429.31C2363.42,-427.71 1938.41,-417.09 1590,-353.25 1340.63,-307.56 1292.4,-236.98 1043,-191.5 995.21,-182.79 980.64,-197.07 934,-183.5 883.98,-168.94 832.37,-141.23 793.19,-117.11"/>
<polygon fill="#ff0000" stroke="#ff0000" stroke-width="2" points="796.41,-115 786.07,-112.67 792.7,-120.93 796.41,-115"/>
<text text-anchor="middle" x="1638" y="-255.32" font-family="Arial" font-size="14.00">exclusive power</text>
</g>
<!-- BorrowingOperations -->
<g id="node22" class="node">
<title>BorrowingOperations</title>
<path fill="#ff6347" stroke="black" d="M1400.41,-107.64C1400.41,-107.64 1276.34,-74.36 1276.34,-74.36 1270.55,-72.8 1270.55,-69.7 1276.34,-68.14 1276.34,-68.14 1400.41,-34.86 1400.41,-34.86 1406.2,-33.3 1417.8,-33.3 1423.59,-34.86 1423.59,-34.86 1547.66,-68.14 1547.66,-68.14 1553.45,-69.7 1553.45,-72.8 1547.66,-74.36 1547.66,-74.36 1423.59,-107.64 1423.59,-107.64 1417.8,-109.2 1406.2,-109.2 1400.41,-107.64"/>
<text text-anchor="middle" x="1412" y="-73.7" font-family="Arial" font-size="14.00" fill="white">Borrowing Operations</text>
<text text-anchor="middle" x="1412" y="-57.95" font-family="Arial" font-size="14.00" fill="white">(borrow, repay)</text>
</g>
<!-- RegisteredBorrower&#45;&gt;BorrowingOperations -->
<g id="edge28" class="edge">
<title>RegisteredBorrower&#45;&gt;BorrowingOperations</title>
<path fill="none" stroke="#ff0000" stroke-width="2" d="M2531.92,-429.96C2440.7,-427.64 2283.35,-414.06 2165,-353.25 2088.41,-313.89 2101.1,-261.12 2027,-217.25 1992.67,-196.92 1980.41,-197.71 1941,-191.5 1900.05,-185.05 1607.34,-196.56 1568,-183.5 1523.46,-168.72 1480.64,-136.44 1451.16,-110.44"/>
<polygon fill="#ff0000" stroke="#ff0000" stroke-width="2" points="1454.86,-109.06 1445.09,-104.98 1450.18,-114.27 1454.86,-109.06"/>
<text text-anchor="middle" x="2213" y="-255.32" font-family="Arial" font-size="14.00">exclusive power</text>
</g>
<!-- AccessControl -->
<g id="node23" class="node">
<title>AccessControl</title>
<path fill="#ff6347" stroke="black" d="M1083.72,-122.39C1083.72,-122.39 954.53,-75.36 954.53,-75.36 948.89,-73.3 948.89,-69.2 954.53,-67.14 954.53,-67.14 1083.72,-20.11 1083.72,-20.11 1089.36,-18.05 1100.64,-18.05 1106.28,-20.11 1106.28,-20.11 1235.47,-67.14 1235.47,-67.14 1241.11,-69.2 1241.11,-73.3 1235.47,-75.36 1235.47,-75.36 1106.28,-122.39 1106.28,-122.39 1100.64,-124.45 1089.36,-124.45 1083.72,-122.39"/>
<text text-anchor="middle" x="1095" y="-81.58" font-family="Arial" font-size="14.00" fill="white">Access Control</text>
<text text-anchor="middle" x="1095" y="-65.83" font-family="Arial" font-size="14.00" fill="white">(blockFromDeposits,</text>
<text text-anchor="middle" x="1095" y="-50.08" font-family="Arial" font-size="14.00" fill="white">unblockFromDeposits)</text>
</g>
<!-- RegisteredBorrower&#45;&gt;AccessControl -->
<g id="edge29" class="edge">
<title>RegisteredBorrower&#45;&gt;AccessControl</title>
<path fill="none" stroke="#ff0000" stroke-width="2" d="M2532.15,-424.91C2380.36,-414.89 2038.24,-389.01 1927,-353.25 1771.88,-303.38 1758.93,-217 1598,-191.5 1560.46,-185.55 1292.15,-195.24 1256,-183.5 1215.12,-170.22 1175.32,-142.9 1145.53,-118.65"/>
<polygon fill="#ff0000" stroke="#ff0000" stroke-width="2" points="1149.26,-117.21 1139.33,-113.51 1144.79,-122.59 1149.26,-117.21"/>
<text text-anchor="middle" x="1975" y="-255.32" font-family="Arial" font-size="14.00">exclusive power</text>
</g>
<!-- RoleProvider&#45;&gt;AuthorizedLender -->
<g id="edge12" class="edge">
<title>RoleProvider&#45;&gt;AuthorizedLender</title>
<path fill="none" stroke="#0000ff" stroke-dasharray="1,5" d="M2739.24,-224.92C2745.49,-194.89 2754.56,-151.29 2761.41,-118.37"/>
<polygon fill="#0000ff" stroke="#0000ff" points="2764.81,-119.19 2763.42,-108.69 2757.96,-117.77 2764.81,-119.19"/>
<text text-anchor="middle" x="2795.98" y="-193.95" font-family="Arial" font-size="14.00">issues credential</text>
</g>
<!-- CredentialManagement -->
<g id="node19" class="node">
<title>CredentialManagement</title>
<path fill="#ff6347" stroke="black" d="M2334.34,-107.9C2334.34,-107.9 2196.16,-74.1 2196.16,-74.1 2190.33,-72.68 2190.33,-69.82 2196.16,-68.4 2196.16,-68.4 2334.34,-34.6 2334.34,-34.6 2340.17,-33.18 2351.83,-33.18 2357.66,-34.6 2357.66,-34.6 2495.84,-68.4 2495.84,-68.4 2501.67,-69.82 2501.67,-72.68 2495.84,-74.1 2495.84,-74.1 2357.66,-107.9 2357.66,-107.9 2351.83,-109.32 2340.17,-109.32 2334.34,-107.9"/>
<text text-anchor="middle" x="2346" y="-73.7" font-family="Arial" font-size="14.00" fill="white">Credential Management</text>
<text text-anchor="middle" x="2346" y="-57.95" font-family="Arial" font-size="14.00" fill="white">(Provider + Lender)</text>
</g>
<!-- RoleProvider&#45;&gt;CredentialManagement -->
<g id="edge31" class="edge">
<title>RoleProvider&#45;&gt;CredentialManagement</title>
<path fill="none" stroke="#0000ff" stroke-width="2" d="M2664.06,-239.6C2621.66,-225.99 2566.51,-206.37 2520,-183.5 2475.89,-161.8 2429.11,-131.44 2395.18,-107.91"/>
<polygon fill="#0000ff" stroke="#0000ff" stroke-width="2" points="2398.65,-106.06 2388.45,-103.2 2394.64,-111.8 2398.65,-106.06"/>
<text text-anchor="middle" x="2627.01" y="-193.95" font-family="Arial" font-size="14.00">validation authority</text>
</g>
<!-- FeeCollection -->
<g id="node18" class="node">
<title>FeeCollection</title>
<path fill="#ff6347" stroke="black" d="M2003.39,-107.73C2003.39,-107.73 1874.86,-74.27 1874.86,-74.27 1869.06,-72.76 1869.06,-69.74 1874.86,-68.23 1874.86,-68.23 2003.39,-34.77 2003.39,-34.77 2009.19,-33.26 2020.81,-33.26 2026.61,-34.77 2026.61,-34.77 2155.14,-68.23 2155.14,-68.23 2160.94,-69.74 2160.94,-72.76 2155.14,-74.27 2155.14,-74.27 2026.61,-107.73 2026.61,-107.73 2020.81,-109.24 2009.19,-109.24 2003.39,-107.73"/>
<text text-anchor="middle" x="2015" y="-73.7" font-family="Arial" font-size="14.00" fill="white">Fee Collection</text>
<text text-anchor="middle" x="2015" y="-57.95" font-family="Arial" font-size="14.00" fill="white">(Recipient + Borrower)</text>
</g>
<!-- FeeRecipient&#45;&gt;FeeCollection -->
<g id="edge30" class="edge">
<title>FeeRecipient&#45;&gt;FeeCollection</title>
<path fill="none" stroke="#daa520" stroke-width="2" d="M2714.24,-402.43C2705.83,-399.62 2697.28,-397.05 2689,-395 2628.11,-379.89 2601.6,-411.2 2549,-377 2479.36,-331.72 2517.88,-267.84 2452,-217.25 2419.68,-192.43 2404.21,-198.14 2364,-191.5 2322.74,-184.69 2215.65,-196.8 2176,-183.5 2130.56,-168.26 2086.31,-136.03 2055.73,-110.17"/>
<polygon fill="#daa520" stroke="#daa520" stroke-width="2" points="2059.24,-108.57 2049.38,-104.69 2054.67,-113.87 2059.24,-108.57"/>
<text text-anchor="middle" x="2560.08" y="-255.32" font-family="Arial" font-size="14.00">primary right</text>
</g>
<!-- MarketLens -->
<g id="node14" class="node">
<title>MarketLens</title>
<path fill="#4682b4" stroke="black" d="M2750.88,-1013.12C2750.88,-1013.12 2635.12,-1013.12 2635.12,-1013.12 2629.12,-1013.12 2623.12,-1007.12 2623.12,-1001.12 2623.12,-1001.12 2623.12,-954.12 2623.12,-954.12 2623.12,-948.12 2629.12,-942.12 2635.12,-942.12 2635.12,-942.12 2750.88,-942.12 2750.88,-942.12 2756.88,-942.12 2762.88,-948.12 2762.88,-954.12 2762.88,-954.12 2762.88,-1001.12 2762.88,-1001.12 2762.88,-1007.12 2756.88,-1013.12 2750.88,-1013.12"/>
<text text-anchor="middle" x="2693" y="-995.83" font-family="Arial" font-size="14.00" fill="white">MarketLens</text>
<text text-anchor="middle" x="2693" y="-980.08" font-family="Arial" font-size="14.00" fill="white">&#45; Data Aggregation</text>
<text text-anchor="middle" x="2693" y="-964.33" font-family="Arial" font-size="14.00" fill="white">&#45; Read&#45;Only Access</text>
<text text-anchor="middle" x="2693" y="-948.58" font-family="Arial" font-size="14.00" fill="white">&#45; Multi&#45;Market Views</text>
</g>
<!-- MarketLens&#45;&gt;WildcatArchController -->
<g id="edge17" class="edge">
<title>MarketLens&#45;&gt;WildcatArchController</title>
<path fill="none" stroke="#4682b4" stroke-dasharray="1,5" d="M2719.45,-941.82C2750.92,-900.41 2803.74,-830.9 2839.93,-783.29"/>
<polygon fill="#4682b4" stroke="#4682b4" points="2842.52,-785.66 2845.79,-775.58 2836.95,-781.42 2842.52,-785.66"/>
<text text-anchor="middle" x="2843.53" y="-833.83" font-family="Arial" font-size="14.00">reads registry</text>
</g>
<!-- MarketLens&#45;&gt;MarketInstance -->
<g id="edge18" class="edge">
<title>MarketLens&#45;&gt;MarketInstance</title>
<path fill="none" stroke="#4682b4" stroke-dasharray="1,5" d="M2688.77,-941.75C2682.82,-874.99 2680.57,-729.06 2762,-653.75 2806.44,-612.65 2840.88,-658.43 2897,-635.75 2969.71,-606.37 2965,-556.97 3039,-531 3060.19,-523.56 3223.78,-537.43 3241,-523 3285.63,-485.6 3255.98,-451.76 3269,-395 3275.7,-365.81 3283.54,-333.11 3289.79,-307.41"/>
<polygon fill="#4682b4" stroke="#4682b4" points="3293.13,-308.51 3292.09,-297.96 3286.33,-306.85 3293.13,-308.51"/>
<text text-anchor="middle" x="3047.12" y="-594.83" font-family="Arial" font-size="14.00">reads market data</text>
</g>
<!-- MarketLens&#45;&gt;HooksInstance -->
<g id="edge19" class="edge">
<title>MarketLens&#45;&gt;HooksInstance</title>
<path fill="none" stroke="#4682b4" stroke-dasharray="1,5" d="M2680.18,-941.67C2653.64,-862.55 2602.71,-668.01 2697.5,-556.75 2749.86,-495.29 2810.63,-570.39 2876,-523 2942.43,-474.84 2896.53,-406.47 2965,-361.25 2994.82,-341.56 3012.82,-368.78 3045,-353.25 3067.64,-342.33 3087.69,-323.12 3103,-305.11"/>
<polygon fill="#4682b4" stroke="#4682b4" points="3105.54,-307.54 3109.17,-297.58 3100.13,-303.1 3105.54,-307.54"/>
<text text-anchor="middle" x="2749.25" y="-594.83" font-family="Arial" font-size="14.00">reads hooks data</text>
</g>
<!-- DataAccess -->
<g id="node20" class="node">
<title>DataAccess</title>
<path fill="#ff6347" stroke="black" d="M111.75,-106.59C111.75,-106.59 27.5,-75.41 27.5,-75.41 21.88,-73.33 21.88,-69.17 27.5,-67.09 27.5,-67.09 111.75,-35.91 111.75,-35.91 117.37,-33.83 128.63,-33.83 134.25,-35.91 134.25,-35.91 218.5,-67.09 218.5,-67.09 224.12,-69.17 224.12,-73.33 218.5,-75.41 218.5,-75.41 134.25,-106.59 134.25,-106.59 128.63,-108.67 117.37,-108.67 111.75,-106.59"/>
<text text-anchor="middle" x="123" y="-73.7" font-family="Arial" font-size="14.00" fill="white">Data Access</text>
<text text-anchor="middle" x="123" y="-57.95" font-family="Arial" font-size="14.00" fill="white">(Lens + Public)</text>
</g>
<!-- MarketLens&#45;&gt;DataAccess -->
<g id="edge32" class="edge">
<title>MarketLens&#45;&gt;DataAccess</title>
<path fill="none" stroke="#4682b4" stroke-width="2" d="M2622.64,-973.68C2211.41,-955.99 137,-860.38 137,-731.88 137,-731.88 137,-731.88 137,-259.75 137,-212.42 132.51,-158.55 128.61,-120.74"/>
<polygon fill="#4682b4" stroke="#4682b4" stroke-width="2" points="132.28,-122.13 127.75,-112.55 125.32,-122.87 132.28,-122.13"/>
<text text-anchor="middle" x="195.88" y="-533.45" font-family="Arial" font-size="14.00">aggregation service</text>
</g>
<!-- PermissionMatrix -->
<g id="node15" class="node">
<title>PermissionMatrix</title>
<path fill="lightgrey" stroke="none" d="M3898.12,-1090.12C3898.12,-1090.12 3169.88,-1090.12 3169.88,-1090.12 3163.88,-1090.12 3157.88,-1084.12 3157.88,-1078.12 3157.88,-1078.12 3157.88,-877.12 3157.88,-877.12 3157.88,-871.12 3163.88,-865.12 3169.88,-865.12 3169.88,-865.12 3898.12,-865.12 3898.12,-865.12 3904.12,-865.12 3910.12,-871.12 3910.12,-877.12 3910.12,-877.12 3910.12,-1078.12 3910.12,-1078.12 3910.12,-1084.12 3904.12,-1090.12 3898.12,-1090.12"/>
<polygon fill="#4b0082" stroke="none" points="3166.88,-1059.38 3166.88,-1085.12 3901.12,-1085.12 3901.12,-1059.38 3166.88,-1059.38"/>
<polygon fill="none" stroke="black" points="3166.88,-1059.38 3166.88,-1085.12 3901.12,-1085.12 3901.12,-1059.38 3166.88,-1059.38"/>
<text text-anchor="start" x="3475.12" y="-1067.83" font-family="Arial" font-weight="bold" font-size="14.00" fill="white">Permission Matrix</text>
<polygon fill="#d3d3d3" stroke="none" points="3166.88,-1033.62 3166.88,-1059.38 3300.62,-1059.38 3300.62,-1033.62 3166.88,-1033.62"/>
<polygon fill="none" stroke="black" points="3166.88,-1033.62 3166.88,-1059.38 3300.62,-1059.38 3300.62,-1033.62 3166.88,-1033.62"/>
<text text-anchor="start" x="3219.12" y="-1042.08" font-family="Arial" font-weight="bold" font-size="14.00">Role</text>
<polygon fill="#d3d3d3" stroke="none" points="3300.62,-1033.62 3300.62,-1059.38 3411.12,-1059.38 3411.12,-1033.62 3300.62,-1033.62"/>
<polygon fill="none" stroke="black" points="3300.62,-1033.62 3300.62,-1059.38 3411.12,-1059.38 3411.12,-1033.62 3300.62,-1033.62"/>
<text text-anchor="start" x="3305.62" y="-1042.08" font-family="Arial" font-weight="bold" font-size="14.00">Deploy Markets</text>
<polygon fill="#d3d3d3" stroke="none" points="3411.12,-1033.62 3411.12,-1059.38 3529.88,-1059.38 3529.88,-1033.62 3411.12,-1033.62"/>
<polygon fill="none" stroke="black" points="3411.12,-1033.62 3411.12,-1059.38 3529.88,-1059.38 3529.88,-1033.62 3411.12,-1033.62"/>
<text text-anchor="start" x="3416.12" y="-1042.08" font-family="Arial" font-weight="bold" font-size="14.00">Configure Hooks</text>
<polygon fill="#d3d3d3" stroke="none" points="3529.88,-1033.62 3529.88,-1059.38 3654.62,-1059.38 3654.62,-1033.62 3529.88,-1033.62"/>
<polygon fill="none" stroke="black" points="3529.88,-1033.62 3529.88,-1059.38 3654.62,-1059.38 3654.62,-1033.62 3529.88,-1033.62"/>
<text text-anchor="start" x="3534.88" y="-1042.08" font-family="Arial" font-weight="bold" font-size="14.00">Deposit/Withdraw</text>
<polygon fill="#d3d3d3" stroke="none" points="3654.62,-1033.62 3654.62,-1059.38 3775.62,-1059.38 3775.62,-1033.62 3654.62,-1033.62"/>
<polygon fill="none" stroke="black" points="3654.62,-1033.62 3654.62,-1059.38 3775.62,-1059.38 3775.62,-1033.62 3654.62,-1033.62"/>
<text text-anchor="start" x="3659.62" y="-1042.08" font-family="Arial" font-weight="bold" font-size="14.00">Admin Functions</text>
<polygon fill="#d3d3d3" stroke="none" points="3775.62,-1033.62 3775.62,-1059.38 3901.12,-1059.38 3901.12,-1033.62 3775.62,-1033.62"/>
<polygon fill="none" stroke="black" points="3775.62,-1033.62 3775.62,-1059.38 3901.12,-1059.38 3901.12,-1033.62 3775.62,-1033.62"/>
<text text-anchor="start" x="3788.5" y="-1042.08" font-family="Arial" font-weight="bold" font-size="14.00">Special Powers</text>
<polygon fill="none" stroke="black" points="3166.88,-1006.38 3166.88,-1033.62 3300.62,-1033.62 3300.62,-1006.38 3166.88,-1006.38"/>
<text text-anchor="start" x="3186.88" y="-1014.58" font-family="Arial" font-size="14.00">Protocol Owner</text>
<polygon fill="#90ee90" stroke="none" points="3300.62,-1006.38 3300.62,-1033.62 3411.12,-1033.62 3411.12,-1006.38 3300.62,-1006.38"/>
<polygon fill="none" stroke="black" points="3300.62,-1006.38 3300.62,-1033.62 3411.12,-1033.62 3411.12,-1006.38 3300.62,-1006.38"/>
<text text-anchor="start" x="3313.5" y="-1015.33" font-family="Arial" font-size="14.00">✓ (via factory)</text>
<polygon fill="#90ee90" stroke="none" points="3411.12,-1006.38 3411.12,-1033.62 3529.88,-1033.62 3529.88,-1006.38 3411.12,-1006.38"/>
<polygon fill="none" stroke="black" points="3411.12,-1006.38 3411.12,-1033.62 3529.88,-1033.62 3529.88,-1006.38 3411.12,-1006.38"/>
<text text-anchor="start" x="3429.25" y="-1015.33" font-family="Arial" font-size="14.00">✓ (templates)</text>
<polygon fill="#ffb6c1" stroke="none" points="3529.88,-1006.38 3529.88,-1033.62 3654.62,-1033.62 3654.62,-1006.38 3529.88,-1006.38"/>
<polygon fill="none" stroke="black" points="3529.88,-1006.38 3529.88,-1033.62 3654.62,-1033.62 3654.62,-1006.38 3529.88,-1006.38"/>
<text text-anchor="start" x="3588.12" y="-1015.33" font-family="Arial" font-size="14.00">✗</text>
<polygon fill="#90ee90" stroke="none" points="3654.62,-1006.38 3654.62,-1033.62 3775.62,-1033.62 3775.62,-1006.38 3654.62,-1006.38"/>
<polygon fill="none" stroke="black" points="3654.62,-1006.38 3654.62,-1033.62 3775.62,-1033.62 3775.62,-1006.38 3654.62,-1006.38"/>
<text text-anchor="start" x="3697.12" y="-1015.33" font-family="Arial" font-size="14.00">✓ Full</text>
<polygon fill="#90ee90" stroke="none" points="3775.62,-1006.38 3775.62,-1033.62 3901.12,-1033.62 3901.12,-1006.38 3775.62,-1006.38"/>
<polygon fill="none" stroke="black" points="3775.62,-1006.38 3775.62,-1033.62 3901.12,-1033.62 3901.12,-1006.38 3775.62,-1006.38"/>
<text text-anchor="start" x="3790" y="-1014.58" font-family="Arial" font-size="14.00">Registry Control</text>
<polygon fill="none" stroke="black" points="3166.88,-979.12 3166.88,-1006.38 3300.62,-1006.38 3300.62,-979.12 3166.88,-979.12"/>
<text text-anchor="start" x="3171.88" y="-987.33" font-family="Arial" font-size="14.00">Registered Borrower</text>
<polygon fill="#90ee90" stroke="none" points="3300.62,-979.12 3300.62,-1006.38 3411.12,-1006.38 3411.12,-979.12 3300.62,-979.12"/>
<polygon fill="none" stroke="black" points="3300.62,-979.12 3300.62,-1006.38 3411.12,-1006.38 3411.12,-979.12 3300.62,-979.12"/>
<text text-anchor="start" x="3350.62" y="-988.08" font-family="Arial" font-size="14.00">✓</text>
<polygon fill="#90ee90" stroke="none" points="3411.12,-979.12 3411.12,-1006.38 3529.88,-1006.38 3529.88,-979.12 3411.12,-979.12"/>
<polygon fill="none" stroke="black" points="3411.12,-979.12 3411.12,-1006.38 3529.88,-1006.38 3529.88,-979.12 3411.12,-979.12"/>
<text text-anchor="start" x="3465.25" y="-988.08" font-family="Arial" font-size="14.00">✓</text>
<polygon fill="#90ee90" stroke="none" points="3529.88,-979.12 3529.88,-1006.38 3654.62,-1006.38 3654.62,-979.12 3529.88,-979.12"/>
<polygon fill="none" stroke="black" points="3529.88,-979.12 3529.88,-1006.38 3654.62,-1006.38 3654.62,-979.12 3529.88,-979.12"/>
<text text-anchor="start" x="3542" y="-988.08" font-family="Arial" font-size="14.00">✓ (own markets)</text>
<polygon fill="#ffffe0" stroke="none" points="3654.62,-979.12 3654.62,-1006.38 3775.62,-1006.38 3775.62,-979.12 3654.62,-979.12"/>
<polygon fill="none" stroke="black" points="3654.62,-979.12 3654.62,-1006.38 3775.62,-1006.38 3775.62,-979.12 3654.62,-979.12"/>
<text text-anchor="start" x="3668.62" y="-987.33" font-family="Arial" font-size="14.00">Market Specific</text>
<polygon fill="#ffffe0" stroke="none" points="3775.62,-979.12 3775.62,-1006.38 3901.12,-1006.38 3901.12,-979.12 3775.62,-979.12"/>
<polygon fill="none" stroke="black" points="3775.62,-979.12 3775.62,-1006.38 3901.12,-1006.38 3901.12,-979.12 3775.62,-979.12"/>
<text text-anchor="start" x="3780.62" y="-987.33" font-family="Arial" font-size="14.00">Sanctions Override</text>
<polygon fill="none" stroke="black" points="3166.88,-951.88 3166.88,-979.12 3300.62,-979.12 3300.62,-951.88 3166.88,-951.88"/>
<text text-anchor="start" x="3178.62" y="-960.08" font-family="Arial" font-size="14.00">Authorized Lender</text>
<polygon fill="#ffb6c1" stroke="none" points="3300.62,-951.88 3300.62,-979.12 3411.12,-979.12 3411.12,-951.88 3300.62,-951.88"/>
<polygon fill="none" stroke="black" points="3300.62,-951.88 3300.62,-979.12 3411.12,-979.12 3411.12,-951.88 3300.62,-951.88"/>
<text text-anchor="start" x="3351.75" y="-960.83" font-family="Arial" font-size="14.00">✗</text>
<polygon fill="#ffb6c1" stroke="none" points="3411.12,-951.88 3411.12,-979.12 3529.88,-979.12 3529.88,-951.88 3411.12,-951.88"/>
<polygon fill="none" stroke="black" points="3411.12,-951.88 3411.12,-979.12 3529.88,-979.12 3529.88,-951.88 3411.12,-951.88"/>
<text text-anchor="start" x="3466.38" y="-960.83" font-family="Arial" font-size="14.00">✗</text>
<polygon fill="#90ee90" stroke="none" points="3529.88,-951.88 3529.88,-979.12 3654.62,-979.12 3654.62,-951.88 3529.88,-951.88"/>
<polygon fill="none" stroke="black" points="3529.88,-951.88 3529.88,-979.12 3654.62,-979.12 3654.62,-951.88 3529.88,-951.88"/>
<text text-anchor="start" x="3587" y="-960.83" font-family="Arial" font-size="14.00">✓</text>
<polygon fill="#ffb6c1" stroke="none" points="3654.62,-951.88 3654.62,-979.12 3775.62,-979.12 3775.62,-951.88 3654.62,-951.88"/>
<polygon fill="none" stroke="black" points="3654.62,-951.88 3654.62,-979.12 3775.62,-979.12 3775.62,-951.88 3654.62,-951.88"/>
<text text-anchor="start" x="3711" y="-960.83" font-family="Arial" font-size="14.00">✗</text>
<polygon fill="#ffb6c1" stroke="none" points="3775.62,-951.88 3775.62,-979.12 3901.12,-979.12 3901.12,-951.88 3775.62,-951.88"/>
<polygon fill="none" stroke="black" points="3775.62,-951.88 3775.62,-979.12 3901.12,-979.12 3901.12,-951.88 3775.62,-951.88"/>
<text text-anchor="start" x="3822.25" y="-960.08" font-family="Arial" font-size="14.00">None</text>
<polygon fill="none" stroke="black" points="3166.88,-924.62 3166.88,-951.88 3300.62,-951.88 3300.62,-924.62 3166.88,-924.62"/>
<text text-anchor="start" x="3192.88" y="-932.83" font-family="Arial" font-size="14.00">Role Provider</text>
<polygon fill="#ffb6c1" stroke="none" points="3300.62,-924.62 3300.62,-951.88 3411.12,-951.88 3411.12,-924.62 3300.62,-924.62"/>
<polygon fill="none" stroke="black" points="3300.62,-924.62 3300.62,-951.88 3411.12,-951.88 3411.12,-924.62 3300.62,-924.62"/>
<text text-anchor="start" x="3351.75" y="-933.58" font-family="Arial" font-size="14.00">✗</text>
<polygon fill="#ffb6c1" stroke="none" points="3411.12,-924.62 3411.12,-951.88 3529.88,-951.88 3529.88,-924.62 3411.12,-924.62"/>
<polygon fill="none" stroke="black" points="3411.12,-924.62 3411.12,-951.88 3529.88,-951.88 3529.88,-924.62 3411.12,-924.62"/>
<text text-anchor="start" x="3466.38" y="-933.58" font-family="Arial" font-size="14.00">✗</text>
<polygon fill="#ffb6c1" stroke="none" points="3529.88,-924.62 3529.88,-951.88 3654.62,-951.88 3654.62,-924.62 3529.88,-924.62"/>
<polygon fill="none" stroke="black" points="3529.88,-924.62 3529.88,-951.88 3654.62,-951.88 3654.62,-924.62 3529.88,-924.62"/>
<text text-anchor="start" x="3588.12" y="-933.58" font-family="Arial" font-size="14.00">✗</text>
<polygon fill="#ffffe0" stroke="none" points="3654.62,-924.62 3654.62,-951.88 3775.62,-951.88 3775.62,-924.62 3654.62,-924.62"/>
<polygon fill="none" stroke="black" points="3654.62,-924.62 3654.62,-951.88 3775.62,-951.88 3775.62,-924.62 3654.62,-924.62"/>
<text text-anchor="start" x="3664.88" y="-932.83" font-family="Arial" font-size="14.00">Credential Mgmt</text>
<polygon fill="#ffffe0" stroke="none" points="3775.62,-924.62 3775.62,-951.88 3901.12,-951.88 3901.12,-924.62 3775.62,-924.62"/>
<polygon fill="none" stroke="black" points="3775.62,-924.62 3775.62,-951.88 3901.12,-951.88 3901.12,-924.62 3775.62,-924.62"/>
<text text-anchor="start" x="3793" y="-932.83" font-family="Arial" font-size="14.00">Access Control</text>
<polygon fill="none" stroke="black" points="3166.88,-897.38 3166.88,-924.62 3300.62,-924.62 3300.62,-897.38 3166.88,-897.38"/>
<text text-anchor="start" x="3192.12" y="-905.58" font-family="Arial" font-size="14.00">Fee Recipient</text>
<polygon fill="#ffb6c1" stroke="none" points="3300.62,-897.38 3300.62,-924.62 3411.12,-924.62 3411.12,-897.38 3300.62,-897.38"/>
<polygon fill="none" stroke="black" points="3300.62,-897.38 3300.62,-924.62 3411.12,-924.62 3411.12,-897.38 3300.62,-897.38"/>
<text text-anchor="start" x="3351.75" y="-906.33" font-family="Arial" font-size="14.00">✗</text>
<polygon fill="#ffb6c1" stroke="none" points="3411.12,-897.38 3411.12,-924.62 3529.88,-924.62 3529.88,-897.38 3411.12,-897.38"/>
<polygon fill="none" stroke="black" points="3411.12,-897.38 3411.12,-924.62 3529.88,-924.62 3529.88,-897.38 3411.12,-897.38"/>
<text text-anchor="start" x="3466.38" y="-906.33" font-family="Arial" font-size="14.00">✗</text>
<polygon fill="#ffb6c1" stroke="none" points="3529.88,-897.38 3529.88,-924.62 3654.62,-924.62 3654.62,-897.38 3529.88,-897.38"/>
<polygon fill="none" stroke="black" points="3529.88,-897.38 3529.88,-924.62 3654.62,-924.62 3654.62,-897.38 3529.88,-897.38"/>
<text text-anchor="start" x="3588.12" y="-906.33" font-family="Arial" font-size="14.00">✗</text>
<polygon fill="#ffffe0" stroke="none" points="3654.62,-897.38 3654.62,-924.62 3775.62,-924.62 3775.62,-897.38 3654.62,-897.38"/>
<polygon fill="none" stroke="black" points="3654.62,-897.38 3654.62,-924.62 3775.62,-924.62 3775.62,-897.38 3654.62,-897.38"/>
<text text-anchor="start" x="3672" y="-905.58" font-family="Arial" font-size="14.00">Fee Collection</text>
<polygon fill="#ffb6c1" stroke="none" points="3775.62,-897.38 3775.62,-924.62 3901.12,-924.62 3901.12,-897.38 3775.62,-897.38"/>
<polygon fill="none" stroke="black" points="3775.62,-897.38 3775.62,-924.62 3901.12,-924.62 3901.12,-897.38 3775.62,-897.38"/>
<text text-anchor="start" x="3822.25" y="-905.58" font-family="Arial" font-size="14.00">None</text>
<polygon fill="none" stroke="black" points="3166.88,-870.12 3166.88,-897.38 3300.62,-897.38 3300.62,-870.12 3166.88,-870.12"/>
<text text-anchor="start" x="3198.12" y="-878.33" font-family="Arial" font-size="14.00">MarketLens</text>
<polygon fill="#ffb6c1" stroke="none" points="3300.62,-870.12 3300.62,-897.38 3411.12,-897.38 3411.12,-870.12 3300.62,-870.12"/>
<polygon fill="none" stroke="black" points="3300.62,-870.12 3300.62,-897.38 3411.12,-897.38 3411.12,-870.12 3300.62,-870.12"/>
<text text-anchor="start" x="3351.75" y="-879.08" font-family="Arial" font-size="14.00">✗</text>
<polygon fill="#ffb6c1" stroke="none" points="3411.12,-870.12 3411.12,-897.38 3529.88,-897.38 3529.88,-870.12 3411.12,-870.12"/>
<polygon fill="none" stroke="black" points="3411.12,-870.12 3411.12,-897.38 3529.88,-897.38 3529.88,-870.12 3411.12,-870.12"/>
<text text-anchor="start" x="3466.38" y="-879.08" font-family="Arial" font-size="14.00">✗</text>
<polygon fill="#ffb6c1" stroke="none" points="3529.88,-870.12 3529.88,-897.38 3654.62,-897.38 3654.62,-870.12 3529.88,-870.12"/>
<polygon fill="none" stroke="black" points="3529.88,-870.12 3529.88,-897.38 3654.62,-897.38 3654.62,-870.12 3529.88,-870.12"/>
<text text-anchor="start" x="3588.12" y="-879.08" font-family="Arial" font-size="14.00">✗</text>
<polygon fill="#90ee90" stroke="none" points="3654.62,-870.12 3654.62,-897.38 3775.62,-897.38 3775.62,-870.12 3654.62,-870.12"/>
<polygon fill="none" stroke="black" points="3654.62,-870.12 3654.62,-897.38 3775.62,-897.38 3775.62,-870.12 3654.62,-870.12"/>
<text text-anchor="start" x="3682.5" y="-878.33" font-family="Arial" font-size="14.00">Read&#45;Only</text>
<polygon fill="#ffffe0" stroke="none" points="3775.62,-870.12 3775.62,-897.38 3901.12,-897.38 3901.12,-870.12 3775.62,-870.12"/>
<polygon fill="none" stroke="black" points="3775.62,-870.12 3775.62,-897.38 3901.12,-897.38 3901.12,-870.12 3775.62,-870.12"/>
<text text-anchor="start" x="3786.25" y="-878.33" font-family="Arial" font-size="14.00">Data Aggregation</text>
<polygon fill="none" stroke="black" points="3165.88,-869.12 3165.88,-1086.12 3902.12,-1086.12 3902.12,-869.12 3165.88,-869.12"/>
</g>
</g>
</svg>
